<svg width="237" height="78" viewBox="0 0 237 78" fill="none" xmlns="http://www.w3.org/2000/svg">
<path d="M2.97656 29.4609C2.97656 26.8516 3.46875 24.4219 4.45312 22.1719C5.4375 19.9062 6.85938 17.9453 8.71875 16.2891C10.5938 14.6172 12.875 13.3047 15.5625 12.3516C18.2656 11.3984 21.3203 10.9219 24.7266 10.9219C27.7109 10.9219 30.4453 11.2266 32.9297 11.8359C35.4297 12.4297 37.75 13.3437 39.8906 14.5781L36.4688 20.2031C35.8281 19.7812 35.0859 19.4062 34.2422 19.0781C33.4141 18.75 32.5234 18.4766 31.5703 18.2578C30.6328 18.0234 29.6562 17.8438 28.6406 17.7188C27.6406 17.5938 26.6484 17.5312 25.6641 17.5312C23.2891 17.5312 21.1719 17.8281 19.3125 18.4219C17.4531 19 15.8828 19.8203 14.6016 20.8828C13.3359 21.9297 12.3672 23.1875 11.6953 24.6562C11.0391 26.1094 10.7109 27.7109 10.7109 29.4609C10.7109 31.2734 11.0547 32.9375 11.7422 34.4531C12.4297 35.9688 13.4219 37.2812 14.7188 38.3906C16.0312 39.4844 17.625 40.3438 19.5 40.9688C21.3906 41.5781 23.5234 41.8828 25.8984 41.8828C26.9766 41.8828 28.0469 41.8047 29.1094 41.6484C30.1719 41.4922 31.1953 41.2812 32.1797 41.0156C33.1797 40.7344 34.1406 40.4062 35.0625 40.0312C35.9844 39.6406 36.8438 39.2188 37.6406 38.7656L41.0625 44.3906C39.0625 45.6719 36.75 46.6797 34.125 47.4141C31.5 48.1328 28.7109 48.4922 25.7578 48.4922C21.9922 48.4922 18.6875 48.0078 15.8438 47.0391C13 46.0547 10.625 44.7109 8.71875 43.0078C6.8125 41.2891 5.375 39.2734 4.40625 36.9609C3.45312 34.6328 2.97656 32.1328 2.97656 29.4609ZM45.9056 11.3672H64.5384C67.3509 11.3672 69.7884 11.6641 71.8509 12.2578C73.9134 12.8359 75.6244 13.6797 76.9837 14.7891C78.3431 15.8984 79.3509 17.25 80.0072 18.8438C80.6791 20.4375 81.015 22.2422 81.015 24.2578C81.015 25.6172 80.8509 26.9141 80.5228 28.1484C80.1947 29.3672 79.6869 30.4922 78.9994 31.5234C78.3275 32.5547 77.4759 33.4766 76.4447 34.2891C75.4134 35.0859 74.2025 35.75 72.8119 36.2812L80.7806 48H71.6869L64.7962 37.5938H64.5853L53.3353 37.5703V48H45.9056V11.3672ZM64.7259 31.1484C66.1322 31.1484 67.3587 30.9844 68.4056 30.6562C69.4681 30.3281 70.3509 29.8672 71.0541 29.2734C71.7728 28.6797 72.3041 27.9609 72.6478 27.1172C73.0072 26.2578 73.1869 25.3047 73.1869 24.2578C73.1869 22.2109 72.4837 20.6328 71.0775 19.5234C69.6712 18.3984 67.5541 17.8359 64.7259 17.8359H53.3353V31.1484H64.7259ZM97.6941 38.9297L81.6862 11.3672H90.1003L101.374 32.2031L112.507 11.3672H120.921L105.124 38.8828V48H97.6941V38.9297ZM123.186 11.3672H142.498C145.311 11.3672 147.748 11.6719 149.811 12.2812C151.873 12.8906 153.584 13.7734 154.943 14.9297C156.303 16.0703 157.311 17.4688 157.967 19.125C158.639 20.7812 158.975 22.6484 158.975 24.7266C158.975 26.6797 158.647 28.4844 157.99 30.1406C157.334 31.7969 156.326 33.2344 154.967 34.4531C153.623 35.6562 151.92 36.6016 149.857 37.2891C147.795 37.9609 145.357 38.2969 142.545 38.2969L130.615 38.2734V48H123.186V11.3672ZM142.686 31.8516C144.092 31.8516 145.318 31.6875 146.365 31.3594C147.428 31.0156 148.311 30.5391 149.014 29.9297C149.732 29.3047 150.264 28.5547 150.607 27.6797C150.967 26.7891 151.147 25.8047 151.147 24.7266C151.147 22.5547 150.436 20.8672 149.014 19.6641C147.607 18.4453 145.498 17.8359 142.686 17.8359H130.615V31.8516H142.686ZM174.787 17.8828H161.263V11.3672H195.74V17.8828H182.216V48H174.787V17.8828Z" fill="black"/>
<rect x="199" y="11" width="37" height="37" fill="black"/>
<path d="M7.45703 66.5508C8.12109 66.9258 8.79297 67.2656 9.47266 67.5703C10.1602 67.8672 10.8711 68.1211 11.6055 68.332C12.3398 68.5352 13.1094 68.6914 13.9141 68.8008C14.7266 68.9102 15.5898 68.9648 16.5039 68.9648C17.6055 68.9648 18.543 68.8945 19.3164 68.7539C20.0898 68.6055 20.7188 68.4062 21.2031 68.1562C21.6953 67.8984 22.0508 67.5938 22.2695 67.2422C22.4961 66.8906 22.6094 66.5078 22.6094 66.0938C22.6094 65.4297 22.332 64.9062 21.7773 64.5234C21.2227 64.1328 20.3672 63.9375 19.2109 63.9375C18.7031 63.9375 18.168 63.9727 17.6055 64.043C17.043 64.1055 16.4727 64.1758 15.8945 64.2539C15.3242 64.332 14.7578 64.4062 14.1953 64.4766C13.6406 64.5391 13.1172 64.5703 12.625 64.5703C11.8047 64.5703 11.0156 64.4648 10.2578 64.2539C9.50781 64.043 8.83984 63.7266 8.25391 63.3047C7.67578 62.8828 7.21484 62.3555 6.87109 61.7227C6.52734 61.0898 6.35547 60.3516 6.35547 59.5078C6.35547 59.0078 6.42188 58.5117 6.55469 58.0195C6.69531 57.5273 6.91406 57.0586 7.21094 56.6133C7.51562 56.1602 7.90625 55.7422 8.38281 55.3594C8.85938 54.9688 9.43359 54.6328 10.1055 54.3516C10.7852 54.0703 11.5664 53.8516 12.4492 53.6953C13.3398 53.5312 14.3516 53.4492 15.4844 53.4492C16.3047 53.4492 17.1289 53.4961 17.957 53.5898C18.7852 53.6758 19.5898 53.8008 20.3711 53.9648C21.1602 54.1289 21.918 54.3281 22.6445 54.5625C23.3711 54.7891 24.0469 55.043 24.6719 55.3242L23.043 58.3242C22.5273 58.0977 21.9727 57.8906 21.3789 57.7031C20.7852 57.5078 20.1641 57.3398 19.5156 57.1992C18.8672 57.0586 18.1953 56.9492 17.5 56.8711C16.8125 56.7852 16.1094 56.7422 15.3906 56.7422C14.3672 56.7422 13.5234 56.8164 12.8594 56.9648C12.2031 57.1133 11.6797 57.3047 11.2891 57.5391C10.8984 57.7656 10.625 58.0234 10.4688 58.3125C10.3203 58.5938 10.2461 58.875 10.2461 59.1562C10.2461 59.7031 10.4922 60.1523 10.9844 60.5039C11.4766 60.8477 12.2266 61.0195 13.2344 61.0195C13.6406 61.0195 14.1055 60.9922 14.6289 60.9375C15.1602 60.875 15.7148 60.8086 16.293 60.7383C16.8789 60.668 17.4727 60.6055 18.0742 60.5508C18.6836 60.4883 19.2734 60.457 19.8438 60.457C20.9219 60.457 21.875 60.5781 22.7031 60.8203C23.5391 61.0625 24.2383 61.4102 24.8008 61.8633C25.3633 62.3086 25.7891 62.8516 26.0781 63.4922C26.3672 64.125 26.5117 64.8359 26.5117 65.625C26.5117 66.6797 26.2656 67.6211 25.7734 68.4492C25.2891 69.2695 24.5938 69.9648 23.6875 70.5352C22.7891 71.0977 21.7031 71.5273 20.4297 71.8242C19.1562 72.1133 17.7383 72.2578 16.1758 72.2578C15.1445 72.2578 14.1367 72.1914 13.1523 72.0586C12.168 71.9336 11.2227 71.7539 10.3164 71.5195C9.41797 71.2773 8.55859 70.9922 7.73828 70.6641C6.92578 70.3281 6.17188 69.9609 5.47656 69.5625L7.45703 66.5508ZM49.2034 62.7891C49.2034 61.4062 49.4573 60.1406 49.9652 58.9922C50.473 57.8438 51.1839 56.8594 52.098 56.0391C53.0198 55.2109 54.1214 54.5703 55.4027 54.1172C56.6917 53.6641 58.1175 53.4375 59.68 53.4375C61.2347 53.4375 62.6566 53.6641 63.9456 54.1172C65.2347 54.5703 66.3363 55.2109 67.2503 56.0391C68.1722 56.8594 68.887 57.8438 69.3948 58.9922C69.9027 60.1406 70.1566 61.4062 70.1566 62.7891C70.1566 64.0234 69.9534 65.168 69.5472 66.2227C69.1488 67.2695 68.5823 68.1992 67.848 69.0117L71.1409 72H66.43L65.2933 70.9688C64.4964 71.3906 63.6292 71.7109 62.6917 71.9297C61.7542 72.1484 60.7503 72.2578 59.68 72.2578C58.1175 72.2578 56.6917 72.0273 55.4027 71.5664C54.1214 71.0977 53.0198 70.4453 52.098 69.6094C51.1839 68.7734 50.473 67.7773 49.9652 66.6211C49.4573 65.457 49.2034 64.1797 49.2034 62.7891ZM52.9183 62.7891C52.9183 63.7344 53.0863 64.5859 53.4222 65.3438C53.7659 66.1016 54.2386 66.75 54.8402 67.2891C55.4495 67.8203 56.1644 68.2305 56.9847 68.5195C57.8128 68.8086 58.7113 68.9531 59.68 68.9531C60.7191 68.9531 61.6683 68.7891 62.5277 68.4609L57.2777 63.7031H61.9886L65.1761 66.5977C65.5745 66.0898 65.8831 65.5195 66.1019 64.8867C66.3284 64.2461 66.4417 63.5469 66.4417 62.7891C66.4417 61.8438 66.2698 60.9961 65.9261 60.2461C65.5823 59.4961 65.1097 58.8633 64.5081 58.3477C63.9066 57.8242 63.1917 57.4258 62.3636 57.1523C61.5433 56.8789 60.6488 56.7422 59.68 56.7422C58.7113 56.7422 57.8128 56.8789 56.9847 57.1523C56.1644 57.4258 55.4495 57.8242 54.8402 58.3477C54.2386 58.8633 53.7659 59.4961 53.4222 60.2461C53.0863 60.9961 52.9183 61.8438 52.9183 62.7891ZM93.2702 53.6836H96.985V63.7734C96.985 64.6016 97.0983 65.3398 97.3248 65.9883C97.5514 66.6289 97.8873 67.1719 98.3327 67.6172C98.7858 68.0625 99.3444 68.4023 100.008 68.6367C100.673 68.8633 101.446 68.9766 102.329 68.9766C103.204 68.9766 103.973 68.8633 104.637 68.6367C105.309 68.4023 105.868 68.0625 106.313 67.6172C106.766 67.1719 107.106 66.6289 107.333 65.9883C107.559 65.3398 107.673 64.6016 107.673 63.7734V53.6836H111.387V64.2188C111.387 65.4219 111.184 66.5156 110.778 67.5C110.372 68.4844 109.782 69.3281 109.008 70.0312C108.235 70.7344 107.286 71.2773 106.161 71.6602C105.044 72.043 103.766 72.2344 102.329 72.2344C100.891 72.2344 99.61 72.043 98.485 71.6602C97.3678 71.2773 96.4225 70.7344 95.6491 70.0312C94.8756 69.3281 94.2858 68.4844 93.8795 67.5C93.4733 66.5156 93.2702 65.4219 93.2702 64.2188V53.6836ZM141.849 53.6836H145.786L154.645 72H150.743L149.278 68.918H138.579L137.161 72H133.247L141.849 53.6836ZM147.813 65.8594L143.853 57.5391L139.997 65.8594H147.813ZM177.173 53.6836H186.49C187.896 53.6836 189.115 53.832 190.146 54.1289C191.177 54.418 192.033 54.8398 192.712 55.3945C193.392 55.9492 193.896 56.625 194.224 57.4219C194.56 58.2188 194.728 59.1211 194.728 60.1289C194.728 60.8086 194.646 61.457 194.482 62.0742C194.318 62.6836 194.064 63.2461 193.72 63.7617C193.384 64.2773 192.958 64.7383 192.443 65.1445C191.927 65.543 191.322 65.875 190.626 66.1406L194.611 72H190.064L186.618 66.7969H186.513L180.888 66.7852V72H177.173V53.6836ZM186.583 63.5742C187.286 63.5742 187.9 63.4922 188.423 63.3281C188.954 63.1641 189.396 62.9336 189.747 62.6367C190.107 62.3398 190.372 61.9805 190.544 61.5586C190.724 61.1289 190.814 60.6523 190.814 60.1289C190.814 59.1055 190.462 58.3164 189.759 57.7617C189.056 57.1992 187.997 56.918 186.583 56.918H180.888V63.5742H186.583ZM218.814 53.6836H234.412V56.9414H222.529V60.5977H233.052V63.6562H222.529V68.7539H234.658V72H218.814V53.6836Z" fill="black"/>
</svg>
